<svg width="17" height="18" viewBox="0 0 17 18" fill="none" xmlns="http://www.w3.org/2000/svg">
<path d="M11.5784 0.666672C11.8809 0.666672 12.1309 0.885396 12.1704 1.16918L12.1759 1.24807L12.1759 1.90523C14.6297 2.06768 16.1322 3.59908 16.1244 6.0715V13.1454C16.1244 15.7661 14.4375 17.3333 11.726 17.3333H4.98774C2.27952 17.3333 0.589355 15.7394 0.589355 13.0867V6.0715C0.589355 3.59997 2.09671 2.06815 4.54515 1.9053L4.54522 1.24807C4.54522 0.926971 4.81274 0.666672 5.14273 0.666672C5.44522 0.666672 5.69521 0.885396 5.73477 1.16918L5.74023 1.24807L5.74011 1.89084H10.9806L10.9809 1.24807C10.9809 0.926971 11.2484 0.666672 11.5784 0.666672ZM14.9291 7.56917H1.78383L1.78436 13.0867C1.78436 15.0243 2.85849 16.0998 4.79158 16.1672L4.98774 16.1705H11.726C13.7895 16.1705 14.9294 15.1115 14.9294 13.1454L14.9291 7.56917ZM11.9031 12.4467C12.2331 12.4467 12.5006 12.707 12.5006 13.0281C12.5006 13.3224 12.2758 13.5657 11.9842 13.6042L11.9031 13.6095C11.5658 13.6095 11.2982 13.3492 11.2982 13.0281C11.2982 12.7337 11.523 12.4905 11.8147 12.452L11.9031 12.4467ZM8.36794 12.4467C8.69793 12.4467 8.96544 12.707 8.96544 13.0281C8.96544 13.3224 8.74066 13.5657 8.44902 13.6042L8.36794 13.6095C8.03057 13.6095 7.76306 13.3492 7.76306 13.0281C7.76306 12.7337 7.98784 12.4905 8.27948 12.452L8.36794 12.4467ZM4.82537 12.4467C5.15536 12.4467 5.42287 12.707 5.42287 13.0281C5.42287 13.3224 5.19809 13.5657 4.90645 13.6042L4.81799 13.6095C4.488 13.6095 4.22049 13.3492 4.22049 13.0281C4.22049 12.7337 4.44527 12.4905 4.73691 12.452L4.82537 12.4467ZM11.9031 9.43388C12.2331 9.43388 12.5006 9.69418 12.5006 10.0153C12.5006 10.3096 12.2758 10.5529 11.9842 10.5914L11.9031 10.5967C11.5658 10.5967 11.2982 10.3364 11.2982 10.0153C11.2982 9.72093 11.523 9.47768 11.8147 9.43918L11.9031 9.43388ZM8.36794 9.43388C8.69793 9.43388 8.96544 9.69418 8.96544 10.0153C8.96544 10.3096 8.74066 10.5529 8.44902 10.5914L8.36794 10.5967C8.03057 10.5967 7.76306 10.3364 7.76306 10.0153C7.76306 9.72093 7.98784 9.47768 8.27948 9.43918L8.36794 9.43388ZM4.82537 9.43388C5.15536 9.43388 5.42287 9.69418 5.42287 10.0153C5.42287 10.3096 5.19809 10.5529 4.90645 10.5914L4.81799 10.5967C4.488 10.5967 4.22049 10.3364 4.22049 10.0153C4.22049 9.72093 4.44527 9.47768 4.73691 9.43918L4.82537 9.43388ZM10.9806 3.05334H5.74011L5.74023 3.79906C5.74023 4.12016 5.47272 4.38046 5.14273 4.38046C4.84023 4.38046 4.59024 4.16173 4.55068 3.87795L4.54522 3.79906L4.54438 3.07102C2.76332 3.21532 1.78436 4.25551 1.78436 6.0715L1.78383 6.40584H14.9291L14.9294 6.06971C14.9351 4.2523 13.9612 3.21426 12.1759 3.07083L12.1759 3.79906C12.1759 4.12016 11.9084 4.38046 11.5784 4.38046C11.2759 4.38046 11.0259 4.16173 10.9863 3.87795L10.9809 3.79906L10.9806 3.05334Z" fill="#B3B4B5"/>
</svg>
