<svg width="65" height="65" viewBox="0 0 65 65" fill="none" xmlns="http://www.w3.org/2000/svg">
<path d="M64.7499 11.0345V54.0377C64.7499 60.0038 59.9136 64.8375 53.9501 64.8375H31.7933C34.0554 57.6153 36.8076 53.1685 36.8076 53.1685C58.0745 52.4153 56.1271 37.7413 56.1271 37.7413C56.4314 24.3338 53.7308 23.204 53.7308 23.204C41.8941 26.5004 36.8076 24.1042 36.8076 24.1042C29.3868 18.9351 20.1759 18.1175 10.1396 24.1042C0.103261 30.1012 1.75663 37.7413 1.75663 37.7413C1.86239 40.202 1.17112 43.2998 0.144531 46.4286V11.0345C0.144531 5.06847 4.98084 0.234742 10.9469 0.234742H53.9527C59.9136 0.232164 64.7499 5.06847 64.7499 11.0345Z" fill="white"/>
</svg>
